<svg width="856" height="352" viewBox="0 0 856 352" fill="none" xmlns="http://www.w3.org/2000/svg">
<path d="M384 1.50476H134.5C124.833 2.33809 101.4 6.00476 85 14.0048C75.8333 17.0048 51.4 30.9048 27 62.5048C21.8333 69.3381 9.3 91.4048 0.5 125.005V219.505C1 228.838 6.8 255.505 26 287.505C32 295.838 51 316.805 79 334.005C83.3333 338.005 102.8 347.005 146 351.005L719.5 350.005C730.5 350.005 761.5 344.405 797.5 322.005C802.5 320.005 818.4 306.505 842 268.505C846 261.005 854.3 240.005 855.5 216.005V131.005C854.5 123.505 851.8 107.105 849 101.505C846.833 88.8381 832.1 55.7048 790.5 24.5048C780.167 18.1714 752.4 4.70476 724 1.50476L619 0.504761V30.5048H724L731.5 31.5048C740 33.0048 762.1 39.8048 782.5 55.0048C791.667 60.8381 813.2 82.5048 826 122.505L828 216.005L826 226.005C824.167 238.505 812.7 270.405 781.5 298.005C773.833 304.171 750.7 317.905 719.5 323.505H146C138.833 323.171 122.5 321.505 114.5 317.505C104.333 315.171 79.9 305.905 63.5 287.505C55 280.671 36.1 257.505 28.5 219.505V125.005C32.5 109.671 46.3 74.7048 69.5 57.5048C81.6667 48.3381 111.7 30.0048 134.5 30.0048H384V1.50476Z" fill="white"/>
<path d="M384 62.5048H134.5C123.5 64.5048 97.4 73.4048 81 93.0048C74.5 100.171 61.5 120.505 61.5 144.505V214.005C61 215.838 61.4 222.205 67 233.005C69.3333 241.005 78.6 260.305 97 273.505C102.833 278.171 120.8 287.905 146 289.505H442.5C440.333 287.171 441.7 266.605 464.5 203.005C471.333 181.005 498.1 122.105 550.5 62.5048H402.5V34.5048H613.5V61.5048C596.667 81.3381 559.1 130.405 543.5 168.005C532.833 191.171 510.7 247.905 507.5 289.505L726 288.005C736.333 285.838 760.7 276.905 775.5 258.505C780.833 253.505 792.2 237.105 795 211.505V141.505C795.167 132.171 791.3 109.105 774.5 91.5048C771.167 85.0048 755.6 69.9048 720 61.5048H619V34.5048H720C722.833 34.6714 729.1 35.4048 731.5 37.0048C739 38.5048 757.5 43.7048 771.5 52.5048C779.274 57.0048 797.758 71.8048 809.5 95.0048C812.167 99.3381 818.5 113.405 822.5 135.005V222.505C820.333 231.338 813.5 252.905 803.5 268.505C799.833 273.505 789.1 286.005 775.5 296.005C772.134 300.005 756.222 310.105 719.5 318.505H134C123.833 316.338 99.7 309.505 84.5 299.505C79.3333 296.671 65.4 286.205 51 267.005C46.1667 259.005 35.8 238.305 33 219.505V131.005C32.5 129.505 33.2 122.605 40 107.005C43.7868 96.8381 56.8884 72.4048 79 56.0048C85.5 50.6976 105.7 39.0675 134.5 35.0048H384V62.5048Z" fill="white"/>
<path d="M613.5 0.504761V30.5048H402.5V1.50476L613.5 0.504761Z" fill="white"/>
<path d="M398 30.5048L389 30.0048V0.504761H398V30.5048Z" fill="white"/>
<path d="M389 34.5048V62.5048H398V34.5048H389Z" fill="white"/>
<path d="M384 1.50476H134.5C124.833 2.33809 101.4 6.00476 85 14.0048C75.8333 17.0048 51.4 30.9048 27 62.5048C21.8333 69.3381 9.3 91.4048 0.5 125.005V219.505C1 228.838 6.8 255.505 26 287.505C32 295.838 51 316.805 79 334.005C83.3333 338.005 102.8 347.005 146 351.005L719.5 350.005C730.5 350.005 761.5 344.405 797.5 322.005C802.5 320.005 818.4 306.505 842 268.505C846 261.005 854.3 240.005 855.5 216.005V131.005C854.5 123.505 851.8 107.105 849 101.505C846.833 88.8381 832.1 55.7048 790.5 24.5048C780.167 18.1714 752.4 4.70476 724 1.50476L619 0.504761V30.5048H724L731.5 31.5048C740 33.0048 762.1 39.8048 782.5 55.0048C791.667 60.8381 813.2 82.5048 826 122.505L828 216.005L826 226.005C824.167 238.505 812.7 270.405 781.5 298.005C773.833 304.171 750.7 317.905 719.5 323.505H146C138.833 323.171 122.5 321.505 114.5 317.505C104.333 315.171 79.9 305.905 63.5 287.505C55 280.671 36.1 257.505 28.5 219.505V125.005C32.5 109.671 46.3 74.7048 69.5 57.5048C81.6667 48.3381 111.7 30.0048 134.5 30.0048H384V1.50476Z" stroke="white"/>
<path d="M384 62.5048H134.5C123.5 64.5048 97.4 73.4048 81 93.0048C74.5 100.171 61.5 120.505 61.5 144.505V214.005C61 215.838 61.4 222.205 67 233.005C69.3333 241.005 78.6 260.305 97 273.505C102.833 278.171 120.8 287.905 146 289.505H442.5C440.333 287.171 441.7 266.605 464.5 203.005C471.333 181.005 498.1 122.105 550.5 62.5048H402.5V34.5048H613.5V61.5048C596.667 81.3381 559.1 130.405 543.5 168.005C532.833 191.171 510.7 247.905 507.5 289.505L726 288.005C736.333 285.838 760.7 276.905 775.5 258.505C780.833 253.505 792.2 237.105 795 211.505V141.505C795.167 132.171 791.3 109.105 774.5 91.5048C771.167 85.0048 755.6 69.9048 720 61.5048H619V34.5048H720C722.833 34.6714 729.1 35.4048 731.5 37.0048C739 38.5048 757.5 43.7048 771.5 52.5048C779.274 57.0048 797.758 71.8048 809.5 95.0048C812.167 99.3381 818.5 113.405 822.5 135.005V222.505C820.333 231.338 813.5 252.905 803.5 268.505C799.833 273.505 789.1 286.005 775.5 296.005C772.134 300.005 756.222 310.105 719.5 318.505H134C123.833 316.338 99.7 309.505 84.5 299.505C79.3333 296.671 65.4 286.205 51 267.005C46.1667 259.005 35.8 238.305 33 219.505V131.005C32.5 129.505 33.2 122.605 40 107.005C43.7868 96.8381 56.8884 72.4048 79 56.0048C85.5 50.6976 105.7 39.0675 134.5 35.0048H384V62.5048Z" stroke="white"/>
<path d="M613.5 0.504761V30.5048H402.5V1.50476L613.5 0.504761Z" stroke="white"/>
<path d="M398 30.5048L389 30.0048V0.504761H398V30.5048Z" stroke="white"/>
<path d="M389 34.5048V62.5048H398V34.5048H389Z" stroke="white"/>
</svg>
