<svg width="1086" height="415" viewBox="0 0 1086 415" fill="none" xmlns="http://www.w3.org/2000/svg">
<path d="M65.3255 364.697C60.4352 362.601 49.8162 353.379 46.4629 333.258H0.354402C-0.344212 338.847 -0.483935 352.96 4.54608 364.697C7.34054 370.286 15.4445 383.561 25.5045 391.944C31.0934 398.232 49.8162 411.646 79.9964 415H117.721C126.803 413.603 146.644 409.551 153.351 404.52C167.323 396.136 195.268 373.919 195.268 352.121V322.778C193.87 312.997 186.884 291.338 170.118 282.955C168.72 281.557 145.806 273.313 65.3255 251.515C61.1338 250.118 52.3313 245.646 50.6546 238.939V220.076C53.449 215.185 62.3913 204.985 75.8047 203.308C86.9825 200.513 113.53 198.278 130.297 211.692C133.79 213.788 140.357 221.753 138.68 236.843H188.98C187.583 223.569 181.435 194.505 168.022 184.444C159.638 177.458 136.584 162.646 111.434 159.293H79.9964C71.613 159.992 50.2354 164.323 31.792 176.061C24.8059 180.253 9.15693 194.505 2.45024 217.98V247.323C2.45024 252.912 7.06109 268.283 25.5045 285.051C28.9976 287.845 53.5888 298.045 124.009 316.49C128.201 317.189 138.261 320.682 144.967 329.066C146.365 333.956 148.321 344.995 144.967 350.025C145.666 352.121 142.452 358.828 124.009 368.889C110.735 370.985 80.4155 373.081 65.3255 364.697Z" fill="white"/>
<path d="M392.277 165.581H216.226V408.712H400.66V360.505H266.526V301.818H381.797V259.899H266.526V211.692H392.277V165.581Z" fill="white"/>
<path d="M603.957 81.7424L425.81 404.52H532.698L712.94 71.2626V0H417.427V81.7424H603.957Z" fill="white"/>
<path d="M685.694 408.712V165.581H865.937V211.692H740.186V255.707H855.458V306.01H740.186V360.505H872.224V408.712H685.694Z" fill="white"/>
<path d="M886.895 165.581V408.712H939.291V236.843L1033.6 404.52H1086V165.581H1037.8V333.258L943.483 165.581H886.895Z" fill="white"/>
</svg>
